<svg width="333" height="5" viewBox="0 0 333 5" fill="none" xmlns="http://www.w3.org/2000/svg">
<path d="M0 4L6.39555 1.30714C8.38078 0.47125 10.6192 0.47125 12.6045 1.30714L15.8955 2.69286C17.8808 3.52875 20.1192 3.52875 22.1045 2.69286L25.3955 1.30714C27.3808 0.47125 29.6192 0.47125 31.6045 1.30714L34.8955 2.69286C36.8808 3.52875 39.1192 3.52875 41.1045 2.69286L44.3955 1.30714C46.3808 0.47125 48.6192 0.47125 50.6045 1.30714L53.8955 2.69286C55.8808 3.52875 58.1192 3.52875 60.1045 2.69286L63.3955 1.30714C65.3808 0.47125 67.6192 0.47125 69.6045 1.30714L72.8955 2.69286C74.8808 3.52875 77.1192 3.52875 79.1045 2.69286L82.3955 1.30714C84.3808 0.47125 86.6192 0.47125 88.6045 1.30714L91.8955 2.69286C93.8808 3.52875 96.1192 3.52875 98.1045 2.69286L101.396 1.30714C103.381 0.47125 105.619 0.47125 107.604 1.30714L110.896 2.69286C112.881 3.52875 115.119 3.52875 117.104 2.69286L120.396 1.30714C122.381 0.47125 124.619 0.47125 126.604 1.30714L129.896 2.69286C131.881 3.52875 134.119 3.52875 136.104 2.69286L139.396 1.30714C141.381 0.47125 143.619 0.47125 145.604 1.30714L148.896 2.69286C150.881 3.52875 153.119 3.52875 155.104 2.69286L158.396 1.30714C160.381 0.47125 162.619 0.47125 164.604 1.30714L167.896 2.69286C169.881 3.52875 172.119 3.52875 174.104 2.69286L177.396 1.30714C179.381 0.47125 181.619 0.47125 183.604 1.30714L186.896 2.69286C188.881 3.52875 191.119 3.52875 193.104 2.69286L196.396 1.30714C198.381 0.47125 200.619 0.47125 202.604 1.30714L205.896 2.69286C207.881 3.52875 210.119 3.52875 212.104 2.69286L215.396 1.30714C217.381 0.47125 219.619 0.47125 221.604 1.30714L224.896 2.69286C226.881 3.52875 229.119 3.52875 231.104 2.69286L234.396 1.30714C236.381 0.47125 238.619 0.47125 240.604 1.30714L243.896 2.69286C245.881 3.52875 248.119 3.52875 250.104 2.69286L253.396 1.30714C255.381 0.47125 257.619 0.47125 259.604 1.30714L262.896 2.69286C264.881 3.52875 267.119 3.52875 269.104 2.69286L272.396 1.30714C274.381 0.47125 276.619 0.47125 278.604 1.30714L281.896 2.69286C283.881 3.52875 286.119 3.52875 288.104 2.69286L291.396 1.30714C293.381 0.47125 295.619 0.47125 297.604 1.30714L300.896 2.69286C302.881 3.52875 305.119 3.52875 307.104 2.69286L310.396 1.30714C312.381 0.47125 314.619 0.47125 316.604 1.30714L319.973 2.72566C321.913 3.54216 324.095 3.56183 326.049 2.78039L330.029 1.18845C331.936 0.425535 334.064 0.425535 335.971 1.18845L343 4" stroke="#DBEBF9"/>
<path d="M6.39555 1.30714L0 4H342.5L336.027 1.27434C334.087 0.457837 331.905 0.438174 329.951 1.21961L326.049 2.78039C324.095 3.56183 321.913 3.54216 319.973 2.72566L316.604 1.30714C314.619 0.47125 312.381 0.47125 310.396 1.30714L307.104 2.69286C305.119 3.52875 302.881 3.52875 300.896 2.69286L297.604 1.30714C295.619 0.47125 293.381 0.47125 291.396 1.30714L288.104 2.69286C286.119 3.52875 283.881 3.52875 281.896 2.69286L278.604 1.30714C276.619 0.47125 274.381 0.47125 272.396 1.30714L269.104 2.69286C267.119 3.52875 264.881 3.52875 262.896 2.69286L259.604 1.30714C257.619 0.47125 255.381 0.47125 253.396 1.30714L250.104 2.69286C248.119 3.52875 245.881 3.52875 243.896 2.69286L240.604 1.30714C238.619 0.47125 236.381 0.47125 234.396 1.30714L231.104 2.69286C229.119 3.52875 226.881 3.52875 224.896 2.69286L221.604 1.30714C219.619 0.47125 217.381 0.47125 215.396 1.30714L212.104 2.69286C210.119 3.52875 207.881 3.52875 205.896 2.69286L202.604 1.30714C200.619 0.47125 198.381 0.47125 196.396 1.30714L193.104 2.69286C191.119 3.52875 188.881 3.52875 186.896 2.69286L183.604 1.30714C181.619 0.47125 179.381 0.47125 177.396 1.30714L174.104 2.69286C172.119 3.52875 169.881 3.52875 167.896 2.69286L164.604 1.30714C162.619 0.47125 160.381 0.47125 158.396 1.30714L155.104 2.69286C153.119 3.52875 150.881 3.52875 148.896 2.69286L145.604 1.30714C143.619 0.47125 141.381 0.47125 139.396 1.30714L136.104 2.69286C134.119 3.52875 131.881 3.52875 129.896 2.69286L126.604 1.30714C124.619 0.47125 122.381 0.47125 120.396 1.30714L117.104 2.69286C115.119 3.52875 112.881 3.52875 110.896 2.69286L107.604 1.30714C105.619 0.47125 103.381 0.47125 101.396 1.30714L98.1045 2.69286C96.1192 3.52875 93.8808 3.52875 91.8955 2.69286L88.6045 1.30714C86.6192 0.47125 84.3808 0.47125 82.3955 1.30714L79.1045 2.69286C77.1192 3.52875 74.8808 3.52875 72.8955 2.69286L69.6045 1.30714C67.6192 0.47125 65.3808 0.47125 63.3955 1.30714L60.1045 2.69286C58.1192 3.52875 55.8808 3.52875 53.8955 2.69286L50.6045 1.30714C48.6192 0.47125 46.3808 0.47125 44.3955 1.30714L41.1045 2.69286C39.1192 3.52875 36.8808 3.52875 34.8955 2.69286L31.6045 1.30714C29.6192 0.47125 27.3808 0.47125 25.3955 1.30714L22.1045 2.69286C20.1192 3.52875 17.8808 3.52875 15.8955 2.69286L12.6045 1.30714C10.6192 0.47125 8.38078 0.47125 6.39555 1.30714Z" fill="url(#paint0_linear_1729_11298)"/>
<defs>
<linearGradient id="paint0_linear_1729_11298" x1="171.25" y1="0" x2="171.25" y2="4" gradientUnits="userSpaceOnUse">
<stop stop-color="#E6F4FF"/>
<stop offset="1" stop-color="#F9FCFF"/>
</linearGradient>
</defs>
</svg>
